<?xml version="1.0" standalone="no"?>
<!DOCTYPE svg PUBLIC "-//W3C//DTD SVG 20010904//EN"
 "http://www.w3.org/TR/2001/REC-SVG-20010904/DTD/svg10.dtd">
<svg version="1.0" xmlns="http://www.w3.org/2000/svg"
 width="261.000000pt" height="261.000000pt" viewBox="0 0 261.000000 261.000000"
 preserveAspectRatio="xMidYMid meet">
<metadata>
Created by potrace 1.14, written by Peter Selinger 2001-2017
</metadata>
<g transform="translate(0.000000,261.000000) scale(0.100000,-0.100000)"
fill="#000000" stroke="none">
<path d="M1238 2353 l-3 -258 -352 0 c-308 0 -353 -2 -354 -15 0 -8 -1 -169
-1 -357 l-1 -341 -211 -1 c-116 0 -235 0 -264 0 l-53 -1 3 -57 3 -58 260 0
260 0 2 -330 c1 -182 2 -342 3 -357 l0 -26 353 0 352 1 3 -272 c1 -149 6 -271
10 -272 10 -1 85 -1 98 0 8 1 11 82 12 267 0 146 3 268 5 271 3 3 163 5 356 5
l351 0 0 353 c0 273 3 354 13 357 6 2 126 4 265 3 220 -1 252 1 253 15 5 102
6 100 -21 101 -14 0 -134 1 -267 1 l-243 0 0 357 0 356 -355 0 -355 0 -1 40
c0 22 -1 138 -1 258 l0 217 -59 0 -59 0 -2 -257z m12 -704 c6 0 31 -1 58 -2
l47 -1 1 157 c1 86 4 163 7 171 8 19 114 -3 203 -44 152 -69 258 -171 328
-315 36 -73 53 -126 62 -193 l5 -40 -138 0 c-76 0 -148 -1 -160 -1 -21 -1 -23
-6 -23 -59 l0 -58 148 1 c81 1 153 -1 160 -3 29 -10 -19 -178 -79 -278 -51
-85 -123 -159 -207 -214 -75 -50 -194 -96 -264 -103 -44 -5 -40 -21 -39 172 0
63 -4 120 -9 125 -7 9 -60 12 -102 7 -5 -1 -8 -71 -8 -156 l0 -155 -22 4 c-13
2 -41 7 -63 11 -60 12 -164 57 -227 99 -146 96 -262 278 -284 445 l-6 46 161
0 c89 0 162 2 162 5 1 3 2 29 3 58 3 60 26 54 -191 53 -153 -1 -146 -7 -118
104 65 251 268 444 514 489 l66 12 3 -168 c1 -100 6 -168 12 -169z"/>
</g>
</svg>
